<?xml version="1.0" encoding="UTF-8" standalone="no"?>
<svg
   xmlns:dc="http://purl.org/dc/elements/1.1/"
   xmlns:cc="http://creativecommons.org/ns#"
   xmlns:rdf="http://www.w3.org/1999/02/22-rdf-syntax-ns#"
   xmlns:svg="http://www.w3.org/2000/svg"
   xmlns="http://www.w3.org/2000/svg"
   xmlns:xlink="http://www.w3.org/1999/xlink"
   xmlns:sodipodi="http://sodipodi.sourceforge.net/DTD/sodipodi-0.dtd"
   xmlns:inkscape="http://www.inkscape.org/namespaces/inkscape"
   width="600"
   height="480"
   viewBox="0 0 600 480"
   id="svg2"
   version="1.1"
   inkscape:version="0.48.2 r9819"
   sodipodi:docname="Compteurs_en_rond_-_SLF.svg">
  <metadata
     id="metadata171">
    <rdf:RDF>
      <cc:Work
         rdf:about="">
        <dc:format>image/svg+xml</dc:format>
        <dc:type
           rdf:resource="http://purl.org/dc/dcmitype/StillImage" />
      </cc:Work>
    </rdf:RDF>
  </metadata>
  <sodipodi:namedview
     pagecolor="#ffffff"
     bordercolor="#666666"
     borderopacity="1"
     objecttolerance="10"
     gridtolerance="10"
     guidetolerance="10"
     inkscape:pageopacity="0"
     inkscape:pageshadow="2"
     inkscape:window-width="1087"
     inkscape:window-height="792"
     id="namedview169"
     showgrid="false"
     inkscape:zoom="1.3906433"
     inkscape:cx="703.39341"
     inkscape:cy="387.41228"
     inkscape:window-x="328"
     inkscape:window-y="0"
     inkscape:window-maximized="0"
     inkscape:current-layer="svg2" />
  <title
     id="title4">gnuplot</title>
  <desc
     id="desc6">Produced by GNUPLOT 4.4 patchlevel 4 </desc>
  <defs
     id="defs8">
    <circle
       id="gpDot"
       r="0.5"
       stroke-width="0.5" />
    <path
       id="gpPt0"
       stroke-width="0.222"
       stroke="currentColor"
       d="M-1,0 h2 M0,-1 v2" />
    <path
       id="gpPt1"
       stroke-width="0.222"
       stroke="currentColor"
       d="M-1,-1 L1,1 M1,-1 L-1,1" />
    <path
       id="gpPt2"
       stroke-width="0.222"
       stroke="currentColor"
       d="M-1,0 L1,0 M0,-1 L0,1 M-1,-1 L1,1 M-1,1 L1,-1" />
    <rect
       id="gpPt3"
       stroke-width="0.222"
       stroke="currentColor"
       x="-1"
       y="-1"
       width="2"
       height="2" />
    <rect
       id="gpPt4"
       stroke-width="0.222"
       stroke="currentColor"
       fill="currentColor"
       x="-1"
       y="-1"
       width="2"
       height="2" />
    <circle
       id="gpPt5"
       stroke-width="0.222"
       stroke="currentColor"
       cx="0"
       cy="0"
       r="1" />
    <use
       xlink:href="#gpPt5"
       id="gpPt6"
       fill="currentColor"
       stroke="none" />
    <path
       id="gpPt7"
       stroke-width="0.222"
       stroke="currentColor"
       d="M0,-1.33 L-1.33,0.67 L1.33,0.67 z" />
    <use
       xlink:href="#gpPt7"
       id="gpPt8"
       fill="currentColor"
       stroke="none" />
    <use
       xlink:href="#gpPt7"
       id="gpPt9"
       stroke="currentColor"
       transform="rotate(180)" />
    <use
       xlink:href="#gpPt9"
       id="gpPt10"
       fill="currentColor"
       stroke="none" />
    <use
       xlink:href="#gpPt3"
       id="gpPt11"
       stroke="currentColor"
       transform="rotate(45)" />
    <use
       xlink:href="#gpPt11"
       id="gpPt12"
       fill="currentColor"
       stroke="none" />
  </defs>
  <g
     style="fill:none; color:white; stroke:currentColor; stroke-width:1.00; stroke-linecap:butt; stroke-linejoin:miter"
     id="g24" />
  <g
     style="fill:none; color:black; stroke:currentColor; stroke-width:1.00; stroke-linecap:butt; stroke-linejoin:miter"
     id="g26">
    <path
       d="M96.8,422.4 L105.8,422.4 M575.0,422.4 L566.0,422.4 "
       id="path28" />
    <g
       transform="translate(88.5,426.9)"
       style="stroke:none; fill:black; font-family:Arial; font-size:12.00pt; text-anchor:end"
       id="g30">
      <text
         id="text32"> 0</text>
    </g>
    <path
       d="M96.8,379.1 L105.8,379.1 M575.0,379.1 L566.0,379.1 "
       id="path34" />
    <g
       transform="translate(88.5,383.6)"
       style="stroke:none; fill:black; font-family:Arial; font-size:12.00pt; text-anchor:end"
       id="g36">
      <text
         id="text38"> 20000</text>
    </g>
    <path
       d="M96.8,335.7 L105.8,335.7 M575.0,335.7 L566.0,335.7 "
       id="path40" />
    <g
       transform="translate(88.5,340.2)"
       style="stroke:none; fill:black; font-family:Arial; font-size:12.00pt; text-anchor:end"
       id="g42">
      <text
         id="text44"> 40000</text>
    </g>
    <path
       d="M96.8,292.4 L105.8,292.4 M575.0,292.4 L566.0,292.4 "
       id="path46" />
    <g
       transform="translate(88.5,296.9)"
       style="stroke:none; fill:black; font-family:Arial; font-size:12.00pt; text-anchor:end"
       id="g48">
      <text
         id="text50"> 60000</text>
    </g>
    <path
       d="M96.8,249.1 L105.8,249.1 M575.0,249.1 L566.0,249.1 "
       id="path52" />
    <g
       transform="translate(88.5,253.6)"
       style="stroke:none; fill:black; font-family:Arial; font-size:12.00pt; text-anchor:end"
       id="g54">
      <text
         id="text56"> 80000</text>
    </g>
    <path
       d="M96.8,205.8 L105.8,205.8 M575.0,205.8 L566.0,205.8 "
       id="path58" />
    <g
       transform="translate(88.5,210.3)"
       style="stroke:none; fill:black; font-family:Arial; font-size:12.00pt; text-anchor:end"
       id="g60">
      <text
         id="text62"> 100000</text>
    </g>
    <path
       d="M96.8,162.4 L105.8,162.4 M575.0,162.4 L566.0,162.4 "
       id="path64" />
    <g
       transform="translate(88.5,166.9)"
       style="stroke:none; fill:black; font-family:Arial; font-size:12.00pt; text-anchor:end"
       id="g66">
      <text
         id="text68"> 120000</text>
    </g>
    <path
       d="M96.8,119.1 L105.8,119.1 M575.0,119.1 L566.0,119.1 "
       id="path70" />
    <g
       transform="translate(88.5,123.6)"
       style="stroke:none; fill:black; font-family:Arial; font-size:12.00pt; text-anchor:end"
       id="g72">
      <text
         id="text74"> 140000</text>
    </g>
    <path
       d="M96.8,75.8 L105.8,75.8 M575.0,75.8 L566.0,75.8 "
       id="path76" />
    <g
       transform="translate(88.5,80.3)"
       style="stroke:none; fill:black; font-family:Arial; font-size:12.00pt; text-anchor:end"
       id="g78">
      <text
         id="text80"> 160000</text>
    </g>
    <path
       d="M158.5,422.4 L158.5,413.4 M158.5,54.1 L158.5,63.1 "
       id="path82" />
    <g
       transform="translate(158.5,444.9)"
       style="stroke:none; fill:black; font-family:Arial; font-size:12.00pt; text-anchor:middle"
       id="g84">
      <text
         id="text86"> 5</text>
    </g>
    <path
       d="M235.6,422.4 L235.6,413.4 M235.6,54.1 L235.6,63.1 "
       id="path88" />
    <g
       transform="translate(235.6,444.9)"
       style="stroke:none; fill:black; font-family:Arial; font-size:12.00pt; text-anchor:middle"
       id="g90">
      <text
         id="text92"> 10</text>
    </g>
    <path
       d="M312.8,422.4 L312.8,413.4 M312.8,54.1 L312.8,63.1 "
       id="path94" />
    <g
       transform="translate(312.8,444.9)"
       style="stroke:none; fill:black; font-family:Arial; font-size:12.00pt; text-anchor:middle"
       id="g96">
      <text
         id="text98"> 15</text>
    </g>
    <path
       d="M389.9,422.4 L389.9,413.4 M389.9,54.1 L389.9,63.1 "
       id="path100" />
    <g
       transform="translate(389.9,444.9)"
       style="stroke:none; fill:black; font-family:Arial; font-size:12.00pt; text-anchor:middle"
       id="g102">
      <text
         id="text104"> 20</text>
    </g>
    <path
       d="M467.0,422.4 L467.0,413.4 M467.0,54.1 L467.0,63.1 "
       id="path106" />
    <g
       transform="translate(467.0,444.9)"
       style="stroke:none; fill:black; font-family:Arial; font-size:12.00pt; text-anchor:middle"
       id="g108">
      <text
         id="text110"> 25</text>
    </g>
    <path
       d="M544.1,422.4 L544.1,413.4 M544.1,54.1 L544.1,63.1 "
       id="path112" />
    <g
       transform="translate(544.1,444.9)"
       style="stroke:none; fill:black; font-family:Arial; font-size:12.00pt; text-anchor:middle"
       id="g114">
      <text
         id="text116"> 30</text>
    </g>
    <path
       d="M96.8,54.1 L96.8,422.4 L575.0,422.4 L575.0,54.1 L96.8,54.1 Z "
       id="path118" />
    <g
       transform="translate(17.6,238.3) rotate(270)"
       style="stroke:none; fill:black; font-family:Arial; font-size:12.00pt; text-anchor:middle"
       id="g120">
      <text
         id="text122">Temps de calcul (en ms.)</text>
    </g>
    <g
       transform="translate(335.9,471.9)"
       style="stroke:none; fill:black; font-family:Arial; font-size:12.00pt; text-anchor:middle"
       id="g124">
      <text
         id="text126">Nombre de threads</text>
    </g>
    <g
       transform="translate(335.9,31.6)"
       style="stroke:none; fill:black; font-family:Arial; font-size:12.00pt; text-anchor:middle"
       id="g128">
      <text
         id="text130">Performances des verrous pour le système des compteurs en rond</text>
    </g>
  </g>
  <g
     id="Plot_1">
    <title
       id="title133">Plot_1</title>
    <g
       style="fill:none; color:red; stroke:currentColor; stroke-width:1.00; stroke-linecap:butt; stroke-linejoin:miter"
       id="g135">
      <g
         transform="translate(507.9,76.6)"
         style="stroke:none; fill:black; font-family:Arial; font-size:12.00pt; text-anchor:end"
         id="g137">
        <text
           id="text139">Verrou intrinsèque (synchronized)</text>
      </g>
      <path
         d="M516.2,72.1 L558.4,72.1 M96.8,422.3 L112.2,418.1 L127.7,410.2 L143.1,408.1 L158.5,401.0 L173.9,394.6    L189.4,381.7 L204.8,369.4 L220.2,366.5 L235.6,356.5 L251.1,339.6 L266.5,331.2 L281.9,330.4 L297.3,316.8    L312.8,299.6 L328.2,283.5 L359.0,248.9 L389.9,254.2 L420.7,210.8 L451.6,181.3 L482.4,203.4 L513.3,175.6    L544.1,156.6 L575.0,139.3 "
         id="path141"
         style="stroke-width:8;stroke-miterlimit:4;stroke-dasharray:8,8;stroke-dashoffset:0" />
    </g>
  </g>
  <g
     id="Plot_2">
    <title
       id="title144">Plot_2</title>
    <g
       style="fill:none; color:green; stroke:currentColor; stroke-width:1.00; stroke-linecap:butt; stroke-linejoin:miter"
       id="g146">
      <g
         transform="translate(507.9,94.6)"
         style="stroke:none; fill:black; font-family:Arial; font-size:12.00pt; text-anchor:end"
         id="g148">
        <text
           id="text150">Verrou de la classe ReentrantLock</text>
      </g>
      <path
         d="M516.2,90.1 L558.4,90.1 M96.8,422.3 L112.2,421.4 L127.7,409.5 L143.1,403.0 L158.5,395.3 L173.9,390.9    L189.4,381.2 L204.8,371.2 L220.2,372.6 L235.6,367.3 L251.1,361.2 L266.5,348.7 L281.9,343.7 L297.3,338.1    L312.8,334.5 L328.2,322.9 L359.0,303.6 L389.9,289.0 L420.7,272.0 L451.6,261.8 L482.4,246.0 L513.3,243.3    L544.1,217.5 L575.0,167.6 "
         id="path152"
         style="stroke-width:3;stroke-miterlimit:4;stroke-dasharray:9,3;stroke-dashoffset:0" />
    </g>
  </g>
  <g
     id="Plot_3">
    <title
       id="title155">Plot_3</title>
    <g
       style="fill:none; color:blue; stroke:currentColor; stroke-width:1.00; stroke-linecap:butt; stroke-linejoin:miter"
       id="g157">
      <g
         transform="translate(507.9,112.6)"
         style="stroke:none; fill:black; font-family:Arial; font-size:12.00pt; text-anchor:end"
         id="g159">
        <text
           id="text161">Verrou équitable (fair) de la classe ReentrantLock</text>
      </g>
      <path
         d="M516.2,108.1 L558.4,108.1 M96.8,422.3 L112.2,416.1 L127.7,412.6 L143.1,408.0 L158.5,403.9 L173.9,400.2    L189.4,394.4 L204.8,390.4 L220.2,381.9 L235.6,384.9 L251.1,378.6 L266.5,377.7 L281.9,376.2 L297.3,367.0    L312.8,363.0 L328.2,359.1 L359.0,348.9 L389.9,339.4 L420.7,333.8 L451.6,327.4 L482.4,324.3 L513.3,316.3    L544.1,315.4 L575.0,307.4 "
         id="path163"
         style="stroke-width:4;stroke-miterlimit:4;stroke-dasharray:none" />
    </g>
  </g>
  <g
     style="fill:none; color:black; stroke:currentColor; stroke-width:1.00; stroke-linecap:butt; stroke-linejoin:miter"
     id="g165">
    <path
       d="M96.8,54.1 L96.8,422.4 L575.0,422.4 L575.0,54.1 L96.8,54.1 Z "
       id="path167" />
  </g>
</svg>
