<?xml version="1.0" encoding="UTF-8" standalone="no"?>
<svg
   xmlns:dc="http://purl.org/dc/elements/1.1/"
   xmlns:cc="http://creativecommons.org/ns#"
   xmlns:rdf="http://www.w3.org/1999/02/22-rdf-syntax-ns#"
   xmlns:svg="http://www.w3.org/2000/svg"
   xmlns="http://www.w3.org/2000/svg"
   xmlns:xlink="http://www.w3.org/1999/xlink"
   xmlns:sodipodi="http://sodipodi.sourceforge.net/DTD/sodipodi-0.dtd"
   xmlns:inkscape="http://www.inkscape.org/namespaces/inkscape"
   width="600"
   height="480"
   viewBox="0 0 600 480"
   id="svg2"
   version="1.1"
   inkscape:version="0.48.2 r9819"
   sodipodi:docname="figure.svg">
  <metadata
     id="metadata177">
    <rdf:RDF>
      <cc:Work
         rdf:about="">
        <dc:format>image/svg+xml</dc:format>
        <dc:type
           rdf:resource="http://purl.org/dc/dcmitype/StillImage" />
      </cc:Work>
    </rdf:RDF>
  </metadata>
  <sodipodi:namedview
     pagecolor="#ffffff"
     bordercolor="#666666"
     borderopacity="1"
     objecttolerance="10"
     gridtolerance="10"
     guidetolerance="10"
     inkscape:pageopacity="0"
     inkscape:pageshadow="2"
     inkscape:window-width="1229"
     inkscape:window-height="778"
     id="namedview175"
     showgrid="false"
     inkscape:zoom="1.3906433"
     inkscape:cx="300"
     inkscape:cy="240"
     inkscape:window-x="0"
     inkscape:window-y="0"
     inkscape:window-maximized="0"
     inkscape:current-layer="svg2" />
  <title
     id="title4">gnuplot</title>
  <desc
     id="desc6">Produced by GNUPLOT 4.4 patchlevel 4 </desc>
  <defs
     id="defs8">
    <circle
       id="gpDot"
       r="0.5"
       stroke-width="0.5" />
    <path
       id="gpPt0"
       stroke-width="0.222"
       stroke="currentColor"
       d="M-1,0 h2 M0,-1 v2" />
    <path
       id="gpPt1"
       stroke-width="0.222"
       stroke="currentColor"
       d="M-1,-1 L1,1 M1,-1 L-1,1" />
    <path
       id="gpPt2"
       stroke-width="0.222"
       stroke="currentColor"
       d="M-1,0 L1,0 M0,-1 L0,1 M-1,-1 L1,1 M-1,1 L1,-1" />
    <rect
       id="gpPt3"
       stroke-width="0.222"
       stroke="currentColor"
       x="-1"
       y="-1"
       width="2"
       height="2" />
    <rect
       id="gpPt4"
       stroke-width="0.222"
       stroke="currentColor"
       fill="currentColor"
       x="-1"
       y="-1"
       width="2"
       height="2" />
    <circle
       id="gpPt5"
       stroke-width="0.222"
       stroke="currentColor"
       cx="0"
       cy="0"
       r="1" />
    <use
       xlink:href="#gpPt5"
       id="gpPt6"
       fill="currentColor"
       stroke="none" />
    <path
       id="gpPt7"
       stroke-width="0.222"
       stroke="currentColor"
       d="M0,-1.33 L-1.33,0.67 L1.33,0.67 z" />
    <use
       xlink:href="#gpPt7"
       id="gpPt8"
       fill="currentColor"
       stroke="none" />
    <use
       xlink:href="#gpPt7"
       id="gpPt9"
       stroke="currentColor"
       transform="rotate(180)" />
    <use
       xlink:href="#gpPt9"
       id="gpPt10"
       fill="currentColor"
       stroke="none" />
    <use
       xlink:href="#gpPt3"
       id="gpPt11"
       stroke="currentColor"
       transform="rotate(45)" />
    <use
       xlink:href="#gpPt11"
       id="gpPt12"
       fill="currentColor"
       stroke="none" />
  </defs>
  <g
     style="fill:none; color:white; stroke:currentColor; stroke-width:1.00; stroke-linecap:butt; stroke-linejoin:miter"
     id="g24" />
  <g
     style="fill:none; color:black; stroke:currentColor; stroke-width:1.00; stroke-linecap:butt; stroke-linejoin:miter"
     id="g26">
    <path
       d="M88.5,422.4 L97.5,422.4 M575.0,422.4 L566.0,422.4 "
       id="path28" />
    <g
       transform="translate(80.2,426.9)"
       style="stroke:none; fill:black; font-family:Arial; font-size:12.00pt; text-anchor:end"
       id="g30">
      <text
         id="text32"> 0</text>
    </g>
    <path
       d="M88.5,381.5 L97.5,381.5 M575.0,381.5 L566.0,381.5 "
       id="path34" />
    <g
       transform="translate(80.2,386.0)"
       style="stroke:none; fill:black; font-family:Arial; font-size:12.00pt; text-anchor:end"
       id="g36">
      <text
         id="text38"> 5000</text>
    </g>
    <path
       d="M88.5,340.6 L97.5,340.6 M575.0,340.6 L566.0,340.6 "
       id="path40" />
    <g
       transform="translate(80.2,345.1)"
       style="stroke:none; fill:black; font-family:Arial; font-size:12.00pt; text-anchor:end"
       id="g42">
      <text
         id="text44"> 10000</text>
    </g>
    <path
       d="M88.5,299.6 L97.5,299.6 M575.0,299.6 L566.0,299.6 "
       id="path46" />
    <g
       transform="translate(80.2,304.1)"
       style="stroke:none; fill:black; font-family:Arial; font-size:12.00pt; text-anchor:end"
       id="g48">
      <text
         id="text50"> 15000</text>
    </g>
    <path
       d="M88.5,258.7 L97.5,258.7 M575.0,258.7 L566.0,258.7 "
       id="path52" />
    <g
       transform="translate(80.2,263.2)"
       style="stroke:none; fill:black; font-family:Arial; font-size:12.00pt; text-anchor:end"
       id="g54">
      <text
         id="text56"> 20000</text>
    </g>
    <path
       d="M88.5,217.8 L97.5,217.8 M575.0,217.8 L566.0,217.8 "
       id="path58" />
    <g
       transform="translate(80.2,222.3)"
       style="stroke:none; fill:black; font-family:Arial; font-size:12.00pt; text-anchor:end"
       id="g60">
      <text
         id="text62"> 25000</text>
    </g>
    <path
       d="M88.5,176.9 L97.5,176.9 M575.0,176.9 L566.0,176.9 "
       id="path64" />
    <g
       transform="translate(80.2,181.4)"
       style="stroke:none; fill:black; font-family:Arial; font-size:12.00pt; text-anchor:end"
       id="g66">
      <text
         id="text68"> 30000</text>
    </g>
    <path
       d="M88.5,135.9 L97.5,135.9 M575.0,135.9 L566.0,135.9 "
       id="path70" />
    <g
       transform="translate(80.2,140.4)"
       style="stroke:none; fill:black; font-family:Arial; font-size:12.00pt; text-anchor:end"
       id="g72">
      <text
         id="text74"> 35000</text>
    </g>
    <path
       d="M88.5,95.0 L97.5,95.0 M575.0,95.0 L566.0,95.0 "
       id="path76" />
    <g
       transform="translate(80.2,99.5)"
       style="stroke:none; fill:black; font-family:Arial; font-size:12.00pt; text-anchor:end"
       id="g78">
      <text
         id="text80"> 40000</text>
    </g>
    <path
       d="M88.5,54.1 L97.5,54.1 M575.0,54.1 L566.0,54.1 "
       id="path82" />
    <g
       transform="translate(80.2,58.6)"
       style="stroke:none; fill:black; font-family:Arial; font-size:12.00pt; text-anchor:end"
       id="g84">
      <text
         id="text86"> 45000</text>
    </g>
    <path
       d="M151.3,422.4 L151.3,413.4 M151.3,54.1 L151.3,63.1 "
       id="path88" />
    <g
       transform="translate(151.3,444.9)"
       style="stroke:none; fill:black; font-family:Arial; font-size:12.00pt; text-anchor:middle"
       id="g90">
      <text
         id="text92"> 5</text>
    </g>
    <path
       d="M229.7,422.4 L229.7,413.4 M229.7,54.1 L229.7,63.1 "
       id="path94" />
    <g
       transform="translate(229.7,444.9)"
       style="stroke:none; fill:black; font-family:Arial; font-size:12.00pt; text-anchor:middle"
       id="g96">
      <text
         id="text98"> 10</text>
    </g>
    <path
       d="M308.2,422.4 L308.2,413.4 M308.2,54.1 L308.2,63.1 "
       id="path100" />
    <g
       transform="translate(308.2,444.9)"
       style="stroke:none; fill:black; font-family:Arial; font-size:12.00pt; text-anchor:middle"
       id="g102">
      <text
         id="text104"> 15</text>
    </g>
    <path
       d="M386.7,422.4 L386.7,413.4 M386.7,54.1 L386.7,63.1 "
       id="path106" />
    <g
       transform="translate(386.7,444.9)"
       style="stroke:none; fill:black; font-family:Arial; font-size:12.00pt; text-anchor:middle"
       id="g108">
      <text
         id="text110"> 20</text>
    </g>
    <path
       d="M465.1,422.4 L465.1,413.4 M465.1,54.1 L465.1,63.1 "
       id="path112" />
    <g
       transform="translate(465.1,444.9)"
       style="stroke:none; fill:black; font-family:Arial; font-size:12.00pt; text-anchor:middle"
       id="g114">
      <text
         id="text116"> 25</text>
    </g>
    <path
       d="M543.6,422.4 L543.6,413.4 M543.6,54.1 L543.6,63.1 "
       id="path118" />
    <g
       transform="translate(543.6,444.9)"
       style="stroke:none; fill:black; font-family:Arial; font-size:12.00pt; text-anchor:middle"
       id="g120">
      <text
         id="text122"> 30</text>
    </g>
    <path
       d="M88.5,54.1 L88.5,422.4 L575.0,422.4 L575.0,54.1 L88.5,54.1 Z "
       id="path124" />
    <g
       transform="translate(17.6,238.3) rotate(270)"
       style="stroke:none; fill:black; font-family:Arial; font-size:12.00pt; text-anchor:middle"
       id="g126">
      <text
         id="text128">Temps de calcul (en ms.)</text>
    </g>
    <g
       transform="translate(331.7,471.9)"
       style="stroke:none; fill:black; font-family:Arial; font-size:12.00pt; text-anchor:middle"
       id="g130">
      <text
         id="text132">Nombre de threads</text>
    </g>
    <g
       transform="translate(331.7,31.6)"
       style="stroke:none; fill:black; font-family:Arial; font-size:12.00pt; text-anchor:middle"
       id="g134">
      <text
         id="text136">Performances des verrous pour le système des compteurs anarchiques</text>
    </g>
  </g>
  <g
     id="Plot_1">
    <title
       id="title139">Plot_1</title>
    <g
       style="fill:none; color:red; stroke:currentColor; stroke-width:1.00; stroke-linecap:butt; stroke-linejoin:miter"
       id="g141">
      <g
         transform="translate(507.9,76.6)"
         style="stroke:none; fill:black; font-family:Arial; font-size:12.00pt; text-anchor:end"
         id="g143">
        <text
           id="text145">Verrou intrinsèque (synchronized)</text>
      </g>
      <path
         d="M516.2,72.1 L558.4,72.1 M88.5,420.6 L104.2,419.0 L119.9,418.2 L135.6,418.6 L151.3,418.5 L167.0,418.6    L182.7,416.9 L198.4,417.6 L214.0,418.4 L229.7,418.3 L245.4,418.3 L261.1,418.5 L276.8,417.4 L292.5,417.6    L308.2,418.4 L323.9,418.3 L355.3,418.4 L386.7,418.4 L418.1,418.3 L449.5,418.4 L480.8,418.4 L512.2,418.3    L543.6,418.3 L575.0,418.4 "
         id="path147"
         style="stroke-width:8;stroke-miterlimit:4;stroke-dasharray:8,8;stroke-dashoffset:0" />
    </g>
  </g>
  <g
     id="Plot_2">
    <title
       id="title150">Plot_2</title>
    <g
       style="fill:none; color:green; stroke:currentColor; stroke-width:1.00; stroke-linecap:butt; stroke-linejoin:miter"
       id="g152">
      <g
         transform="translate(507.9,94.6)"
         style="stroke:none; fill:black; font-family:Arial; font-size:12.00pt; text-anchor:end"
         id="g154">
        <text
           id="text156">Verrou de la classe ReentrantLock</text>
      </g>
      <path
         d="M516.2,90.1 L558.4,90.1 M88.5,420.7 L104.2,410.0 L119.9,419.4 L135.6,419.3 L151.3,418.2 L167.0,418.1    L182.7,418.8 L198.4,418.8 L214.0,419.2 L229.7,417.6 L245.4,418.9 L261.1,417.6 L276.8,418.8 L292.5,418.8    L308.2,418.9 L323.9,417.7 L355.3,417.6 L386.7,417.7 L418.1,418.9 L449.5,417.6 L480.8,418.8 L512.2,417.7    L543.6,417.6 L575.0,418.8 "
         id="path158"
         style="stroke-width:3;stroke-miterlimit:4;stroke-dasharray:12,3;stroke-dashoffset:0" />
    </g>
  </g>
  <g
     id="Plot_3">
    <title
       id="title161">Plot_3</title>
    <g
       style="fill:none; color:blue; stroke:currentColor; stroke-width:1.00; stroke-linecap:butt; stroke-linejoin:miter"
       id="g163">
      <g
         transform="translate(507.9,112.6)"
         style="stroke:none; fill:black; font-family:Arial; font-size:12.00pt; text-anchor:end"
         id="g165">
        <text
           id="text167">Verrou équitable (fair) de la classe ReentrantLock</text>
      </g>
      <path
         d="M516.2,108.1 L558.4,108.1 M88.5,420.7 L104.2,152.4 L119.9,126.1 L135.6,134.5 L151.3,125.7 L167.0,133.8    L182.7,122.6 L198.4,132.0 L214.0,119.5 L229.7,129.7 L245.4,119.0 L261.1,129.1 L276.8,119.2 L292.5,127.1    L308.2,120.1 L323.9,128.7 L355.3,125.6 L386.7,124.6 L418.1,126.0 L449.5,123.8 L480.8,125.0 L512.2,125.7    L543.6,124.5 L575.0,126.9 "
         id="path169"
         style="stroke-width:4;stroke-miterlimit:4;stroke-dasharray:none" />
    </g>
  </g>
  <g
     style="fill:none; color:black; stroke:currentColor; stroke-width:1.00; stroke-linecap:butt; stroke-linejoin:miter"
     id="g171">
    <path
       d="M88.5,54.1 L88.5,422.4 L575.0,422.4 L575.0,54.1 L88.5,54.1 Z "
       id="path173" />
  </g>
</svg>
